<?xml version="1.0" encoding="UTF-8" standalone="no"?>
<!-- Created with Inkscape (http://www.inkscape.org/) -->

<svg
   version="1.1"
   id="svg1"
   width="1024"
   height="1024"
   viewBox="0 0 1024 1024"
   sodipodi:docname="emblem-favicon.svg"
   inkscape:version="1.4.2 (f4327f4, 2025-05-13)"
   xmlns:inkscape="http://www.inkscape.org/namespaces/inkscape"
   xmlns:sodipodi="http://sodipodi.sourceforge.net/DTD/sodipodi-0.dtd"
   xmlns="http://www.w3.org/2000/svg"
   xmlns:svg="http://www.w3.org/2000/svg">
  <defs
     id="defs1" />
  <sodipodi:namedview
     id="namedview1"
     pagecolor="#ffffff"
     bordercolor="#000000"
     borderopacity="0.25"
     inkscape:showpageshadow="2"
     inkscape:pageopacity="0.0"
     inkscape:pagecheckerboard="0"
     inkscape:deskcolor="#d1d1d1"
     inkscape:zoom="0.86425781"
     inkscape:cx="512"
     inkscape:cy="583.15932"
     inkscape:window-width="958"
     inkscape:window-height="1000"
     inkscape:window-x="0"
     inkscape:window-y="0"
     inkscape:window-maximized="0"
     inkscape:current-layer="svg1" />
  <path
     style="fill:#2dd4b5;fill-opacity:1"
     d="m 551.36806,689.57639 -2.88195,0.57639 -0.74305,-0.74306 L 547,688.66667 v -18.14221 -18.1422 l -1.25,-1.6095 -1.25,-1.60949 -6.5,1.39305 -6.5,1.39305 -10.5,1.1038 -10.5,1.10381 -8.5,-0.63163 -8.5,-0.63162 -11.14214,-1.93596 -11.14214,-1.93596 -10.35786,-3.51543 -10.35786,-3.51543 -8.78788,-4.48394 -8.78789,-4.48394 -6.21211,-4.17932 -6.21212,-4.17931 -7.7096,-6.38481 -7.7096,-6.38481 -6.14078,-6.69741 -6.14078,-6.69741 -5.98736,-8.94671 -5.98737,-8.94671 -3.98049,-7.91682 -3.9805,-7.91681 -2.91493,-7.56997 -2.91494,-7.56997 0.23318,-0.16517 0.23317,-0.16517 7.26596,3.38031 7.26597,3.38032 4.35251,8.81078 4.35251,8.81079 3.76488,5.90756 3.76488,5.90757 6.61665,7.87023 6.61664,7.87022 7,6.05582 7,6.05582 8.11951,5.24567 8.11952,5.24567 6.94955,3.49974 6.94955,3.49974 10.71227,3.58403 10.71228,3.58403 9.21866,1.6099 9.21866,1.60989 15.5,-0.51476 15.5,-0.51476 8,-1.67445 8,-1.67446 2.25,-1.44922 2.25,-1.44922 V 477.97695 322 h 5.5 5.5 v 153.53138 153.53139 l 1.51796,0.5825 1.51796,0.58249 3.23204,-1.33007 3.23204,-1.33008 8.18554,-4.53381 8.18554,-4.5338 8.01175,-6.32834 8.01175,-6.32834 6.87845,-7.24123 6.87845,-7.24122 6.65151,-9.99135 6.65152,-9.99135 3.92041,-8.48572 3.92041,-8.48571 3.079,-10.95337 3.07899,-10.95337 1.01579,-6.5 1.01578,-6.5 0.008,-12.11901 0.008,-12.11901 -1.54064,-8.88099 -1.54064,-8.88099 -2.02322,-6.82223 -2.02321,-6.82223 -3.24179,-7.67777 -3.2418,-7.67777 -4.23301,-7.24067 -4.23301,-7.24067 -5.09586,-6.75933 -5.09587,-6.75933 -5.61547,-5.83319 -5.61548,-5.83319 -9.77784,-7.40553 -9.77784,-7.40552 -2.97216,-1.53697 L 574,390.94864 V 384.47432 378 h 0.53067 0.53067 l 6.93955,3.93239 6.93955,3.93239 8.27978,6.29375 8.27978,6.29375 7.57837,7.52386 7.57837,7.52386 5.48616,7.5 5.48617,7.5 5.18485,8.5 5.18485,8.5 3.48681,8.88701 3.48681,8.88701 1.96853,7.11299 1.96854,7.11299 1.67179,11.5 1.67178,11.5 -0.58275,14 -0.58275,14 -2.06305,9.74388 -2.06306,9.74387 -2.57418,7.25613 -2.57417,7.25612 -4.97263,10.22833 -4.97262,10.22834 -5.77813,8.0833 -5.77812,8.0833 -7.70329,8.41695 -7.70329,8.41696 -10.70249,8.04326 -10.7025,8.04327 -8.5,4.39511 -8.5,4.3951 -5.49057,2.16327 -5.49057,2.16327 -0.74412,1.16977 -0.74411,1.16977 -0.0153,20.75 L 558,689 h -1.875 -1.875 z M 431.5,545.86499 l -4,-0.1186 -6.25032,-0.81263 -6.25031,-0.81262 -7.24969,-1.99315 -7.24968,-1.99314 -9,-3.76229 -9,-3.76229 -10.5,-7.07333 -10.5,-7.07333 -0.81732,-7.4818 -0.81733,-7.48181 0.53495,-10 0.53494,-10 1.59633,-9 1.59633,-9 2.99157,-9 2.99157,-9 4.39773,-8.81841 4.39773,-8.81842 5.78241,-8.68158 5.78241,-8.68159 11.02109,-11 11.0211,-11 8.99324,-6.12261 8.99325,-6.1226 8.5,-4.26533 8.5,-4.26533 6.46085,-2.43283 6.46085,-2.43284 10.03915,-2.3463 10.03915,-2.3463 11.12365,-1.1508 11.12364,-1.1508 11.58916,1.07848 11.58916,1.07848 2.59557,0.98683 2.59557,0.98684 -0.34319,50.75255 -0.3432,50.75256 -2.73315,9 -2.73315,9 -3.93921,8 -3.93921,8 -4.18268,6.34422 -4.18268,6.34421 -5.61014,5.52887 -5.61014,5.52887 -7,5.26905 -7,5.26905 -6.33468,3.16501 -6.33467,3.165 -9.0031,2.94207 -9.0031,2.94208 -8.66222,0.99258 -8.66223,0.99258 z"
     id="path2" />
</svg>
