<?xml version="1.0" encoding="UTF-8" standalone="no"?>
<!-- Created with Inkscape (http://www.inkscape.org/) -->

<svg
   version="1.1"
   id="svg1"
   width="1024"
   height="1024"
   viewBox="0 0 1024 1024"
   sodipodi:docname="emblem-mono-muted.svg"
   inkscape:version="1.4.2 (f4327f4, 2025-05-13)"
   xmlns:inkscape="http://www.inkscape.org/namespaces/inkscape"
   xmlns:sodipodi="http://sodipodi.sourceforge.net/DTD/sodipodi-0.dtd"
   xmlns="http://www.w3.org/2000/svg"
   xmlns:svg="http://www.w3.org/2000/svg">
  <defs
     id="defs1" />
  <sodipodi:namedview
     id="namedview1"
     pagecolor="#ffffff"
     bordercolor="#000000"
     borderopacity="0.25"
     inkscape:showpageshadow="2"
     inkscape:pageopacity="0.0"
     inkscape:pagecheckerboard="0"
     inkscape:deskcolor="#d1d1d1"
     inkscape:zoom="0.86425781"
     inkscape:cx="512.57853"
     inkscape:cy="510.84294"
     inkscape:window-width="1039"
     inkscape:window-height="1041"
     inkscape:window-x="0"
     inkscape:window-y="0"
     inkscape:window-maximized="0"
     inkscape:current-layer="svg1" />
  <path
     style="fill:#94a3b8;fill-opacity:1"
     d="m 511,734.85676 -152.5,-0.10362 -6.39341,-0.91425 -6.39342,-0.91426 -6.10658,-2.0383 -6.10659,-2.03829 -6.01763,-3.34302 -6.01763,-3.34301 -5.10654,-4.06588 -5.10654,-4.06589 -5.50769,-6.76512 -5.50769,-6.76512 -3.50565,-7.00166 -3.50565,-7.00167 -1.86156,-5.49833 -1.86157,-5.49834 -0.30893,-166 -0.30894,-166 1.16845,-7.5 1.16844,-7.5 2.02578,-5.5 2.02578,-5.5 4.01334,-7 4.01333,-7 8.60045,-8.52677 8.60045,-8.52677 8,-4.1302 8,-4.13019 7.5,-2.34304 7.5,-2.34303 h 160 160 l 7.79918,2.26043 7.79918,2.26043 5.70082,2.88169 5.70082,2.88169 6.11738,4.50818 6.11737,4.50818 5.89291,6.8497 5.89291,6.8497 4.15336,8 4.15336,8 1.83636,6.5 1.83635,6.5 V 504 672.5 l -1.7602,6.5 -1.7602,6.5 -3.54678,7.25477 -3.54679,7.25477 -4.70301,5.86007 -4.70301,5.86006 -5.49001,4.70206 -5.49,4.70205 -5.5096,3.35948 -5.5096,3.35947 -7.63391,2.56262 -7.63391,2.56262 -6.85649,0.99121 -6.85649,0.9912 z m 3.5,-18.1785 156,-0.17826 6.57213,-2.23524 6.57213,-2.23524 6.27115,-4.05324 6.27115,-4.05325 4.99725,-5.21151 4.99725,-5.21152 3.32334,-6 3.32333,-6 1.83464,-5.5 1.83463,-5.5 0.30978,-161.5 0.30978,-161.5 -1.169,-7.5 -1.169,-7.5 -1.56788,-4 -1.56788,-4 -3.87344,-6.19047 -3.87345,-6.19047 -5.94366,-5.50278 -5.94366,-5.50278 -7.25429,-3.57399 -7.2543,-3.57398 -8.02635,-1.50445 -8.02634,-1.50444 -153.47366,0.27427 -153.47365,0.27427 -5.5,1.84376 -5.5,1.84376 -6.84245,3.5761 -6.84245,3.5761 -5.65755,5.69464 -5.65755,5.69464 -3.26166,5.45076 -3.26167,5.45075 -2.23833,5.93215 L 307.5,336.5 V 504 671.5 l 2.34247,6.5 2.34248,6.5 4.52517,6.81145 4.52518,6.81145 6.13235,5.10612 6.13235,5.10612 6.13086,2.87093 6.13085,2.87093 6.36915,1.38976 6.36914,1.38976 z m 38.45762,-25.8873 -6.54237,0.29095 -0.70763,-0.70762 L 545,689.66667 v -18.77432 -18.77432 l -0.75,-0.42313 -0.75,-0.42313 -10.5,1.82836 -10.5,1.82836 -14.07511,0.0358 L 494.34978,655 482.92489,652.94992 471.5,650.89984 l -10.14427,-3.38679 -10.14428,-3.38678 -8.90292,-4.47132 -8.90293,-4.47132 -9.20617,-6.1579 -9.20617,-6.15791 -8.66693,-8.18391 -8.66692,-8.18391 -5.8022,-7.2809 -5.8022,-7.28089 -5.61375,-9.40717 -5.61375,-9.40716 -3.77835,-8.81194 -3.77835,-8.81194 -1.3272,-3.72487 -1.32721,-3.72486 0.66593,-0.66594 0.66594,-0.66593 8.6193,3.84062 8.61931,3.84062 4.34306,9.05018 4.34305,9.05018 5.2584,8 5.2584,8 11.0551,11.14073 11.05511,11.14072 8.75233,5.67381 8.75234,5.6738 9.24766,4.35379 9.24767,4.3538 6.5,2.11167 6.5,2.11167 10,2.07031 10,2.07031 13,0.0634 13,0.0634 10,-1.75575 10,-1.75575 2.5,-1.17142 2.5,-1.17142 0.25315,-155.38788 0.25316,-155.38788 1.15547,-1.39227 1.15548,-1.39226 6.09137,0.2936 6.09137,0.2936 0.25317,153.75 0.25318,153.75 h 1.64539 1.64539 l 8.10144,-4.43177 8.10143,-4.43177 6.16783,-4.31823 6.16782,-4.31823 7.5448,-6.78687 7.5448,-6.78687 7.56399,-10.04128 7.56399,-10.04129 5.89993,-12.17184 5.89992,-12.17185 2.50131,-9 2.50131,-9 1.22035,-6.5 1.22035,-6.5 0.0404,-14 0.0404,-14 -1.79085,-8.97271 -1.79085,-8.9727 -2.8343,-8.67328 -2.83429,-8.67327 -4.19831,-8.35402 -4.19831,-8.35402 -4.0399,-6 -4.03989,-6 -6.03845,-7.34511 -6.03844,-7.3451 -7.00279,-6.0421 -7.0028,-6.0421 -8.28401,-5.5129 -8.28402,-5.5129 -0.0788,-1.0999 -0.0788,-1.09989 0.15656,-6.49445 0.15656,-6.49444 0.37038,-0.37038 0.37038,-0.37039 7.6251,4.11293 7.6251,4.11293 9.83343,7.5375 9.83342,7.5375 6.84727,7.2144 6.84727,7.2144 4.6935,6.10576 4.6935,6.10576 5.63896,9.25603 5.63896,9.25603 3.8231,9.64469 3.82311,9.64468 1.59389,6.15102 1.59388,6.15102 1.64931,8.3425 1.6493,8.34251 0.0371,16 0.0371,16 -2.22243,11.26285 -2.22244,11.26285 -3.06983,8.73715 -3.06983,8.73715 -5.38078,10.55005 -5.38078,10.55004 -6.16841,8.44996 -6.16842,8.44995 -8.09831,8.34897 -8.09832,8.34896 -9,6.76599 -9,6.76599 -5.88501,3.30669 -5.885,3.3067 -8.615,3.71132 L 560.5,646.76594 560,668.63297 559.5,690.5 Z M 436,546.62298 l -15.5,0.33335 -6.38702,-1.44331 -6.38702,-1.44331 -5.11298,-1.64712 -5.11298,-1.64713 -8,-3.53111 -8,-3.53111 -7,-4.47193 -7,-4.47194 -4.25,-3.45163 -4.25,-3.45164 v -16.80206 -16.80206 l 1.54567,-8.88099 1.54567,-8.88099 3.49025,-10.44031 3.49026,-10.4403 5.50124,-10.5597 5.50125,-10.55969 6.38209,-8.5499 6.3821,-8.54989 9.9451,-9.54554 9.94509,-9.54554 9.33235,-6.24231 9.33235,-6.24231 7.90198,-3.97303 7.90197,-3.97304 10.15131,-3.37684 10.15132,-3.37685 8.5,-1.81238 8.5,-1.81237 19.5,0.0366 19.5,0.0366 4.13538,1.22112 4.13537,1.22112 0.41079,1.74232 0.41078,1.74232 -0.5638,51.5 -0.56381,51.5 -4.00778,11.5 -4.00777,11.5 -4.97458,8.37696 -4.97458,8.37695 -5.52156,6.59155 -5.52157,6.59154 -7.97843,6.19059 -7.97844,6.1906 -6.61473,3.58826 -6.61472,3.58827 -10.88528,3.64745 -10.88527,3.64746 z"
     id="path3" />
  <path
     style="fill:#94a3b8;fill-opacity:1"
     d="m 551.36806,689.57639 -2.88195,0.57639 -0.74305,-0.74306 L 547,688.66667 v -18.14221 -18.1422 l -1.25,-1.6095 -1.25,-1.60949 -6.5,1.39305 -6.5,1.39305 -10.5,1.1038 -10.5,1.10381 -8.5,-0.63163 -8.5,-0.63162 -11.14214,-1.93596 -11.14214,-1.93596 -10.35786,-3.51543 -10.35786,-3.51543 -8.78788,-4.48394 -8.78789,-4.48394 -6.21211,-4.17932 -6.21212,-4.17931 -7.7096,-6.38481 -7.7096,-6.38481 -6.14078,-6.69741 -6.14078,-6.69741 -5.98736,-8.94671 -5.98737,-8.94671 -3.98049,-7.91682 -3.9805,-7.91681 -2.91493,-7.56997 -2.91494,-7.56997 0.23318,-0.16517 0.23317,-0.16517 7.26596,3.38031 7.26597,3.38032 4.35251,8.81078 4.35251,8.81079 3.76488,5.90756 3.76488,5.90757 6.61665,7.87023 6.61664,7.87022 7,6.05582 7,6.05582 8.11951,5.24567 8.11952,5.24567 6.94955,3.49974 6.94955,3.49974 10.71227,3.58403 10.71228,3.58403 9.21866,1.6099 9.21866,1.60989 15.5,-0.51476 15.5,-0.51476 8,-1.67445 8,-1.67446 2.25,-1.44922 2.25,-1.44922 V 477.97695 322 h 5.5 5.5 v 153.53138 153.53139 l 1.51796,0.5825 1.51796,0.58249 3.23204,-1.33007 3.23204,-1.33008 8.18554,-4.53381 8.18554,-4.5338 8.01175,-6.32834 8.01175,-6.32834 6.87845,-7.24123 6.87845,-7.24122 6.65151,-9.99135 6.65152,-9.99135 3.92041,-8.48572 3.92041,-8.48571 3.079,-10.95337 3.07899,-10.95337 1.01579,-6.5 1.01578,-6.5 0.008,-12.11901 0.008,-12.11901 -1.54064,-8.88099 -1.54064,-8.88099 -2.02322,-6.82223 -2.02321,-6.82223 -3.24179,-7.67777 -3.2418,-7.67777 -4.23301,-7.24067 -4.23301,-7.24067 -5.09586,-6.75933 -5.09587,-6.75933 -5.61547,-5.83319 -5.61548,-5.83319 -9.77784,-7.40553 -9.77784,-7.40552 -2.97216,-1.53697 L 574,390.94864 V 384.47432 378 h 0.53067 0.53067 l 6.93955,3.93239 6.93955,3.93239 8.27978,6.29375 8.27978,6.29375 7.57837,7.52386 7.57837,7.52386 5.48616,7.5 5.48617,7.5 5.18485,8.5 5.18485,8.5 3.48681,8.88701 3.48681,8.88701 1.96853,7.11299 1.96854,7.11299 1.67179,11.5 1.67178,11.5 -0.58275,14 -0.58275,14 -2.06305,9.74388 -2.06306,9.74387 -2.57418,7.25613 -2.57417,7.25612 -4.97263,10.22833 -4.97262,10.22834 -5.77813,8.0833 -5.77812,8.0833 -7.70329,8.41695 -7.70329,8.41696 -10.70249,8.04326 -10.7025,8.04327 -8.5,4.39511 -8.5,4.3951 -5.49057,2.16327 -5.49057,2.16327 -0.74412,1.16977 -0.74411,1.16977 -0.0153,20.75 L 558,689 h -1.875 -1.875 z M 431.5,545.86499 l -4,-0.1186 -6.25032,-0.81263 -6.25031,-0.81262 -7.24969,-1.99315 -7.24968,-1.99314 -9,-3.76229 -9,-3.76229 -10.5,-7.07333 -10.5,-7.07333 -0.81732,-7.4818 -0.81733,-7.48181 0.53495,-10 0.53494,-10 1.59633,-9 1.59633,-9 2.99157,-9 2.99157,-9 4.39773,-8.81841 4.39773,-8.81842 5.78241,-8.68158 5.78241,-8.68159 11.02109,-11 11.0211,-11 8.99324,-6.12261 8.99325,-6.1226 8.5,-4.26533 8.5,-4.26533 6.46085,-2.43283 6.46085,-2.43284 10.03915,-2.3463 10.03915,-2.3463 11.12365,-1.1508 11.12364,-1.1508 11.58916,1.07848 11.58916,1.07848 2.59557,0.98683 2.59557,0.98684 -0.34319,50.75255 -0.3432,50.75256 -2.73315,9 -2.73315,9 -3.93921,8 -3.93921,8 -4.18268,6.34422 -4.18268,6.34421 -5.61014,5.52887 -5.61014,5.52887 -7,5.26905 -7,5.26905 -6.33468,3.16501 -6.33467,3.165 -9.0031,2.94207 -9.0031,2.94208 -8.66222,0.99258 -8.66223,0.99258 z"
     id="path2" />
</svg>
